<mxfile host="Electron" agent="Mozilla/5.0 (Windows NT 10.0; Win64; x64) AppleWebKit/537.36 (KHTML, like Gecko) draw.io/26.0.16 Chrome/132.0.6834.196 Electron/34.2.0 Safari/537.36" version="26.0.16">
  <diagram name="Page-1" id="xfAj-x5pBt36dJxaNxI6">
    <mxGraphModel dx="1418" dy="916" grid="1" gridSize="10" guides="1" tooltips="1" connect="1" arrows="1" fold="1" page="1" pageScale="1" pageWidth="850" pageHeight="1100" math="0" shadow="0">
      <root>
        <mxCell id="0" />
        <mxCell id="1" parent="0" />
        <mxCell id="STHu1EgsjJPl13Fwe0tR-4" value="" style="verticalLabelPosition=bottom;verticalAlign=top;html=1;shape=mxgraph.basic.rect;fillColor2=none;strokeWidth=1;size=20;indent=5;" vertex="1" parent="1">
          <mxGeometry x="20" y="20" width="810" height="1060" as="geometry" />
        </mxCell>
        <mxCell id="STHu1EgsjJPl13Fwe0tR-5" value="" style="verticalLabelPosition=bottom;verticalAlign=top;html=1;shape=mxgraph.basic.rect;fillColor2=none;strokeWidth=1;size=20;indent=5;" vertex="1" parent="1">
          <mxGeometry x="20" y="50" width="810" height="50" as="geometry" />
        </mxCell>
        <mxCell id="STHu1EgsjJPl13Fwe0tR-6" value="&lt;font style=&quot;font-size: 18px;&quot;&gt;borrowing a book&lt;/font&gt;" style="text;html=1;align=center;verticalAlign=middle;whiteSpace=wrap;rounded=0;" vertex="1" parent="1">
          <mxGeometry x="300" y="20" width="230" height="30" as="geometry" />
        </mxCell>
        <mxCell id="STHu1EgsjJPl13Fwe0tR-7" value="&lt;font style=&quot;font-size: 14px;&quot;&gt; Student&lt;/font&gt;" style="text;html=1;align=center;verticalAlign=middle;whiteSpace=wrap;rounded=0;" vertex="1" parent="1">
          <mxGeometry x="50" y="60" width="90" height="30" as="geometry" />
        </mxCell>
        <mxCell id="STHu1EgsjJPl13Fwe0tR-8" value="" style="endArrow=none;html=1;rounded=0;exitX=0.374;exitY=1.001;exitDx=0;exitDy=0;exitPerimeter=0;entryX=0.357;entryY=0.159;entryDx=0;entryDy=0;entryPerimeter=0;" edge="1" parent="1" source="STHu1EgsjJPl13Fwe0tR-4" target="STHu1EgsjJPl13Fwe0tR-5">
          <mxGeometry width="50" height="50" relative="1" as="geometry">
            <mxPoint x="280.00000000000017" y="1080.0000000000002" as="sourcePoint" />
            <mxPoint x="270" y="60" as="targetPoint" />
          </mxGeometry>
        </mxCell>
        <mxCell id="STHu1EgsjJPl13Fwe0tR-9" value="" style="endArrow=none;html=1;rounded=0;entryX=0.778;entryY=0.135;entryDx=0;entryDy=0;entryPerimeter=0;exitX=0.787;exitY=0.997;exitDx=0;exitDy=0;exitPerimeter=0;" edge="1" parent="1" source="STHu1EgsjJPl13Fwe0tR-4" target="STHu1EgsjJPl13Fwe0tR-5">
          <mxGeometry width="50" height="50" relative="1" as="geometry">
            <mxPoint x="660" y="1090" as="sourcePoint" />
            <mxPoint x="420" y="300" as="targetPoint" />
          </mxGeometry>
        </mxCell>
        <mxCell id="STHu1EgsjJPl13Fwe0tR-10" value="&lt;font style=&quot;font-size: 14px;&quot;&gt; Library System&lt;/font&gt;" style="text;html=1;align=center;verticalAlign=middle;whiteSpace=wrap;rounded=0;" vertex="1" parent="1">
          <mxGeometry x="370" y="60" width="160" height="30" as="geometry" />
        </mxCell>
        <mxCell id="STHu1EgsjJPl13Fwe0tR-11" value="&lt;font style=&quot;font-size: 14px;&quot;&gt;Librarian&lt;/font&gt;" style="text;html=1;align=center;verticalAlign=middle;whiteSpace=wrap;rounded=0;" vertex="1" parent="1">
          <mxGeometry x="700" y="60" width="60" height="30" as="geometry" />
        </mxCell>
        <mxCell id="STHu1EgsjJPl13Fwe0tR-22" style="edgeStyle=none;rounded=0;orthogonalLoop=1;jettySize=auto;html=1;exitX=0.5;exitY=1;exitDx=0;exitDy=0;entryX=0.5;entryY=0;entryDx=0;entryDy=0;" edge="1" parent="1" source="STHu1EgsjJPl13Fwe0tR-15" target="STHu1EgsjJPl13Fwe0tR-18">
          <mxGeometry relative="1" as="geometry" />
        </mxCell>
        <mxCell id="STHu1EgsjJPl13Fwe0tR-15" value="" style="ellipse;html=1;shape=startState;fillColor=#000000;strokeColor=#0E0E0E;" vertex="1" parent="1">
          <mxGeometry x="127.5" y="120" width="30" height="30" as="geometry" />
        </mxCell>
        <mxCell id="STHu1EgsjJPl13Fwe0tR-30" style="edgeStyle=none;rounded=0;orthogonalLoop=1;jettySize=auto;html=1;exitX=0.379;exitY=1.067;exitDx=0;exitDy=0;entryX=0.5;entryY=0;entryDx=0;entryDy=0;exitPerimeter=0;" edge="1" parent="1" source="STHu1EgsjJPl13Fwe0tR-18" target="STHu1EgsjJPl13Fwe0tR-23">
          <mxGeometry relative="1" as="geometry" />
        </mxCell>
        <mxCell id="STHu1EgsjJPl13Fwe0tR-18" value="" style="rounded=1;whiteSpace=wrap;html=1;" vertex="1" parent="1">
          <mxGeometry x="65" y="200" width="155" height="60" as="geometry" />
        </mxCell>
        <mxCell id="STHu1EgsjJPl13Fwe0tR-19" value="&lt;font style=&quot;font-size: 14px;&quot;&gt;Searches for a Book&lt;/font&gt;" style="text;html=1;align=center;verticalAlign=middle;whiteSpace=wrap;rounded=0;" vertex="1" parent="1">
          <mxGeometry x="95" y="215" width="105" height="30" as="geometry" />
        </mxCell>
        <mxCell id="STHu1EgsjJPl13Fwe0tR-29" style="edgeStyle=none;rounded=0;orthogonalLoop=1;jettySize=auto;html=1;exitX=0.5;exitY=1;exitDx=0;exitDy=0;entryX=0.401;entryY=0.062;entryDx=0;entryDy=0;entryPerimeter=0;" edge="1" parent="1" source="STHu1EgsjJPl13Fwe0tR-23" target="STHu1EgsjJPl13Fwe0tR-26">
          <mxGeometry relative="1" as="geometry" />
        </mxCell>
        <mxCell id="STHu1EgsjJPl13Fwe0tR-37" style="edgeStyle=none;rounded=0;orthogonalLoop=1;jettySize=auto;html=1;exitX=1;exitY=0.5;exitDx=0;exitDy=0;entryX=0;entryY=0.5;entryDx=0;entryDy=0;" edge="1" parent="1" source="STHu1EgsjJPl13Fwe0tR-23" target="STHu1EgsjJPl13Fwe0tR-35">
          <mxGeometry relative="1" as="geometry" />
        </mxCell>
        <mxCell id="STHu1EgsjJPl13Fwe0tR-23" value="" style="rhombus;whiteSpace=wrap;html=1;" vertex="1" parent="1">
          <mxGeometry x="70" y="335" width="107.5" height="100" as="geometry" />
        </mxCell>
        <mxCell id="STHu1EgsjJPl13Fwe0tR-25" value="&lt;font style=&quot;font-size: 14px;&quot;&gt; Availability&lt;/font&gt;" style="text;html=1;align=center;verticalAlign=middle;whiteSpace=wrap;rounded=0;" vertex="1" parent="1">
          <mxGeometry x="93.75" y="365" width="60" height="30" as="geometry" />
        </mxCell>
        <mxCell id="STHu1EgsjJPl13Fwe0tR-33" style="edgeStyle=none;rounded=0;orthogonalLoop=1;jettySize=auto;html=1;exitX=0.5;exitY=1;exitDx=0;exitDy=0;" edge="1" parent="1" source="STHu1EgsjJPl13Fwe0tR-26">
          <mxGeometry relative="1" as="geometry">
            <mxPoint x="140" y="670" as="targetPoint" />
          </mxGeometry>
        </mxCell>
        <mxCell id="STHu1EgsjJPl13Fwe0tR-26" value="" style="rounded=1;whiteSpace=wrap;html=1;" vertex="1" parent="1">
          <mxGeometry x="76.25" y="505" width="120" height="60" as="geometry" />
        </mxCell>
        <mxCell id="STHu1EgsjJPl13Fwe0tR-27" value="&lt;font style=&quot;font-size: 14px;&quot;&gt;&lt;span style=&quot;&quot; data-end=&quot;524&quot; data-start=&quot;504&quot;&gt;reserve the book&lt;/span&gt;.&lt;/font&gt;" style="text;html=1;align=center;verticalAlign=middle;whiteSpace=wrap;rounded=0;" vertex="1" parent="1">
          <mxGeometry x="95" y="520" width="82.5" height="30" as="geometry" />
        </mxCell>
        <mxCell id="STHu1EgsjJPl13Fwe0tR-31" value="no" style="text;html=1;align=center;verticalAlign=middle;whiteSpace=wrap;rounded=0;" vertex="1" parent="1">
          <mxGeometry x="117.5" y="440" width="60" height="30" as="geometry" />
        </mxCell>
        <mxCell id="STHu1EgsjJPl13Fwe0tR-32" value="" style="ellipse;html=1;shape=endState;fillColor=#000000;strokeColor=#181818;" vertex="1" parent="1">
          <mxGeometry x="127.5" y="670" width="30" height="30" as="geometry" />
        </mxCell>
        <mxCell id="STHu1EgsjJPl13Fwe0tR-35" value="" style="rounded=1;whiteSpace=wrap;html=1;" vertex="1" parent="1">
          <mxGeometry x="210" y="365" width="90" height="40" as="geometry" />
        </mxCell>
        <mxCell id="STHu1EgsjJPl13Fwe0tR-42" style="edgeStyle=none;rounded=0;orthogonalLoop=1;jettySize=auto;html=1;entryX=0;entryY=0.5;entryDx=0;entryDy=0;exitX=1;exitY=0.5;exitDx=0;exitDy=0;exitPerimeter=0;" edge="1" parent="1" source="STHu1EgsjJPl13Fwe0tR-35" target="STHu1EgsjJPl13Fwe0tR-40">
          <mxGeometry relative="1" as="geometry">
            <mxPoint x="310" y="380" as="sourcePoint" />
          </mxGeometry>
        </mxCell>
        <mxCell id="STHu1EgsjJPl13Fwe0tR-36" value="Request to borrow" style="text;html=1;align=center;verticalAlign=middle;whiteSpace=wrap;rounded=0;" vertex="1" parent="1">
          <mxGeometry x="220" y="370" width="70" height="30" as="geometry" />
        </mxCell>
        <mxCell id="STHu1EgsjJPl13Fwe0tR-38" value="yes" style="text;html=1;align=center;verticalAlign=middle;whiteSpace=wrap;rounded=0;" vertex="1" parent="1">
          <mxGeometry x="155" y="345" width="60" height="30" as="geometry" />
        </mxCell>
        <mxCell id="STHu1EgsjJPl13Fwe0tR-47" style="edgeStyle=none;rounded=0;orthogonalLoop=1;jettySize=auto;html=1;exitX=0.5;exitY=1;exitDx=0;exitDy=0;entryX=0.5;entryY=0;entryDx=0;entryDy=0;" edge="1" parent="1" source="STHu1EgsjJPl13Fwe0tR-40" target="STHu1EgsjJPl13Fwe0tR-45">
          <mxGeometry relative="1" as="geometry" />
        </mxCell>
        <mxCell id="STHu1EgsjJPl13Fwe0tR-55" style="edgeStyle=none;rounded=0;orthogonalLoop=1;jettySize=auto;html=1;exitX=1;exitY=0.5;exitDx=0;exitDy=0;entryX=0;entryY=0.5;entryDx=0;entryDy=0;" edge="1" parent="1" source="STHu1EgsjJPl13Fwe0tR-40" target="STHu1EgsjJPl13Fwe0tR-53">
          <mxGeometry relative="1" as="geometry" />
        </mxCell>
        <mxCell id="STHu1EgsjJPl13Fwe0tR-40" value="" style="rhombus;whiteSpace=wrap;html=1;" vertex="1" parent="1">
          <mxGeometry x="350" y="345" width="90" height="80" as="geometry" />
        </mxCell>
        <mxCell id="STHu1EgsjJPl13Fwe0tR-41" value="Borrow limit&lt;br/&gt; reched" style="text;html=1;align=center;verticalAlign=middle;whiteSpace=wrap;rounded=0;" vertex="1" parent="1">
          <mxGeometry x="365" y="370" width="60" height="30" as="geometry" />
        </mxCell>
        <mxCell id="STHu1EgsjJPl13Fwe0tR-49" style="edgeStyle=none;rounded=0;orthogonalLoop=1;jettySize=auto;html=1;exitX=0.5;exitY=1;exitDx=0;exitDy=0;entryX=0.5;entryY=0;entryDx=0;entryDy=0;" edge="1" parent="1" source="STHu1EgsjJPl13Fwe0tR-45" target="STHu1EgsjJPl13Fwe0tR-48">
          <mxGeometry relative="1" as="geometry" />
        </mxCell>
        <mxCell id="STHu1EgsjJPl13Fwe0tR-45" value="" style="rounded=1;whiteSpace=wrap;html=1;" vertex="1" parent="1">
          <mxGeometry x="335" y="505" width="120" height="60" as="geometry" />
        </mxCell>
        <mxCell id="STHu1EgsjJPl13Fwe0tR-46" value=" send &lt;br/&gt;massage:&quot;Borrowing &lt;br/&gt;limit reached&quot;" style="text;html=1;align=center;verticalAlign=middle;whiteSpace=wrap;rounded=0;" vertex="1" parent="1">
          <mxGeometry x="365" y="520" width="60" height="30" as="geometry" />
        </mxCell>
        <mxCell id="STHu1EgsjJPl13Fwe0tR-48" value="" style="ellipse;html=1;shape=endState;fillColor=#000000;strokeColor=#0A0A0A;" vertex="1" parent="1">
          <mxGeometry x="380" y="660" width="30" height="30" as="geometry" />
        </mxCell>
        <mxCell id="STHu1EgsjJPl13Fwe0tR-51" value="yes" style="text;align=center;fontStyle=1;verticalAlign=middle;spacingLeft=3;spacingRight=3;strokeColor=none;rotatable=0;points=[[0,0.5],[1,0.5]];portConstraint=eastwest;html=1;" vertex="1" parent="1">
          <mxGeometry x="370" y="435" width="80" height="26" as="geometry" />
        </mxCell>
        <mxCell id="STHu1EgsjJPl13Fwe0tR-61" style="edgeStyle=none;rounded=0;orthogonalLoop=1;jettySize=auto;html=1;exitX=0.5;exitY=1;exitDx=0;exitDy=0;entryX=0.5;entryY=0;entryDx=0;entryDy=0;" edge="1" parent="1" source="STHu1EgsjJPl13Fwe0tR-52" target="STHu1EgsjJPl13Fwe0tR-59">
          <mxGeometry relative="1" as="geometry" />
        </mxCell>
        <mxCell id="STHu1EgsjJPl13Fwe0tR-52" value="" style="rounded=1;whiteSpace=wrap;html=1;" vertex="1" parent="1">
          <mxGeometry x="480" y="505" width="120" height="60" as="geometry" />
        </mxCell>
        <mxCell id="STHu1EgsjJPl13Fwe0tR-58" style="edgeStyle=none;rounded=0;orthogonalLoop=1;jettySize=auto;html=1;exitX=0.5;exitY=1;exitDx=0;exitDy=0;" edge="1" parent="1" source="STHu1EgsjJPl13Fwe0tR-53">
          <mxGeometry relative="1" as="geometry">
            <mxPoint x="530" y="500" as="targetPoint" />
          </mxGeometry>
        </mxCell>
        <mxCell id="STHu1EgsjJPl13Fwe0tR-53" value="" style="rhombus;whiteSpace=wrap;html=1;" vertex="1" parent="1">
          <mxGeometry x="480" y="345" width="100" height="80" as="geometry" />
        </mxCell>
        <mxCell id="STHu1EgsjJPl13Fwe0tR-54" value="Check for Unpaid Fines" style="text;html=1;align=center;verticalAlign=middle;whiteSpace=wrap;rounded=0;" vertex="1" parent="1">
          <mxGeometry x="500" y="375" width="60" height="30" as="geometry" />
        </mxCell>
        <mxCell id="STHu1EgsjJPl13Fwe0tR-56" value="no" style="text;html=1;align=center;verticalAlign=middle;whiteSpace=wrap;rounded=0;" vertex="1" parent="1">
          <mxGeometry x="425" y="345" width="60" height="30" as="geometry" />
        </mxCell>
        <mxCell id="STHu1EgsjJPl13Fwe0tR-57" value=" send &lt;br/&gt;massage&quot;pay the&lt;br/&gt; unpaid fines" style="text;html=1;align=center;verticalAlign=middle;whiteSpace=wrap;rounded=0;" vertex="1" parent="1">
          <mxGeometry x="510" y="520" width="70" height="30" as="geometry" />
        </mxCell>
        <mxCell id="STHu1EgsjJPl13Fwe0tR-59" value="" style="ellipse;html=1;shape=endState;fillColor=#000000;strokeColor=#0E0E0E;" vertex="1" parent="1">
          <mxGeometry x="525" y="660" width="30" height="30" as="geometry" />
        </mxCell>
        <mxCell id="STHu1EgsjJPl13Fwe0tR-62" value="yes" style="text;align=center;fontStyle=1;verticalAlign=middle;spacingLeft=3;spacingRight=3;strokeColor=none;rotatable=0;points=[[0,0.5],[1,0.5]];portConstraint=eastwest;html=1;" vertex="1" parent="1">
          <mxGeometry x="520" y="435" width="80" height="26" as="geometry" />
        </mxCell>
        <mxCell id="STHu1EgsjJPl13Fwe0tR-68" style="edgeStyle=none;rounded=0;orthogonalLoop=1;jettySize=auto;html=1;exitX=0.5;exitY=1;exitDx=0;exitDy=0;" edge="1" parent="1" source="STHu1EgsjJPl13Fwe0tR-63" target="STHu1EgsjJPl13Fwe0tR-67">
          <mxGeometry relative="1" as="geometry" />
        </mxCell>
        <mxCell id="STHu1EgsjJPl13Fwe0tR-63" value="" style="rounded=1;whiteSpace=wrap;html=1;" vertex="1" parent="1">
          <mxGeometry x="680" y="355" width="120" height="60" as="geometry" />
        </mxCell>
        <mxCell id="STHu1EgsjJPl13Fwe0tR-64" style="edgeStyle=none;rounded=0;orthogonalLoop=1;jettySize=auto;html=1;exitX=1;exitY=0.5;exitDx=0;exitDy=0;entryX=0;entryY=0.5;entryDx=0;entryDy=0;" edge="1" parent="1" source="STHu1EgsjJPl13Fwe0tR-53" target="STHu1EgsjJPl13Fwe0tR-63">
          <mxGeometry relative="1" as="geometry">
            <mxPoint x="660" y="386" as="targetPoint" />
          </mxGeometry>
        </mxCell>
        <mxCell id="STHu1EgsjJPl13Fwe0tR-65" value="no" style="text;html=1;align=center;verticalAlign=middle;whiteSpace=wrap;rounded=0;" vertex="1" parent="1">
          <mxGeometry x="570" y="350" width="60" height="30" as="geometry" />
        </mxCell>
        <mxCell id="STHu1EgsjJPl13Fwe0tR-66" value="Approves Borrowing Request" style="text;html=1;align=center;verticalAlign=middle;whiteSpace=wrap;rounded=0;" vertex="1" parent="1">
          <mxGeometry x="710" y="370" width="60" height="30" as="geometry" />
        </mxCell>
        <mxCell id="STHu1EgsjJPl13Fwe0tR-72" style="edgeStyle=orthogonalEdgeStyle;rounded=0;orthogonalLoop=1;jettySize=auto;html=1;exitX=0;exitY=0.5;exitDx=0;exitDy=0;entryX=0.25;entryY=0;entryDx=0;entryDy=0;" edge="1" parent="1" source="STHu1EgsjJPl13Fwe0tR-67" target="STHu1EgsjJPl13Fwe0tR-70">
          <mxGeometry relative="1" as="geometry" />
        </mxCell>
        <mxCell id="STHu1EgsjJPl13Fwe0tR-67" value="" style="rhombus;whiteSpace=wrap;html=1;" vertex="1" parent="1">
          <mxGeometry x="700" y="720" width="90" height="80" as="geometry" />
        </mxCell>
        <mxCell id="STHu1EgsjJPl13Fwe0tR-81" style="edgeStyle=orthogonalEdgeStyle;rounded=0;orthogonalLoop=1;jettySize=auto;html=1;exitX=0.5;exitY=1;exitDx=0;exitDy=0;entryX=0.5;entryY=0;entryDx=0;entryDy=0;" edge="1" parent="1" source="STHu1EgsjJPl13Fwe0tR-67" target="STHu1EgsjJPl13Fwe0tR-78">
          <mxGeometry relative="1" as="geometry" />
        </mxCell>
        <mxCell id="STHu1EgsjJPl13Fwe0tR-69" value=" Borrowing &lt;br/&gt;request check" style="text;html=1;align=center;verticalAlign=middle;whiteSpace=wrap;rounded=0;" vertex="1" parent="1">
          <mxGeometry x="715" y="750" width="60" height="30" as="geometry" />
        </mxCell>
        <mxCell id="STHu1EgsjJPl13Fwe0tR-77" style="edgeStyle=none;rounded=0;orthogonalLoop=1;jettySize=auto;html=1;exitX=0.5;exitY=1;exitDx=0;exitDy=0;entryX=0.5;entryY=0;entryDx=0;entryDy=0;" edge="1" parent="1" source="STHu1EgsjJPl13Fwe0tR-70" target="STHu1EgsjJPl13Fwe0tR-75">
          <mxGeometry relative="1" as="geometry">
            <mxPoint x="420" y="960" as="targetPoint" />
          </mxGeometry>
        </mxCell>
        <mxCell id="STHu1EgsjJPl13Fwe0tR-70" value="" style="rounded=1;whiteSpace=wrap;html=1;" vertex="1" parent="1">
          <mxGeometry x="335" y="830" width="175" height="60" as="geometry" />
        </mxCell>
        <mxCell id="STHu1EgsjJPl13Fwe0tR-73" value="yes" style="text;html=1;align=center;verticalAlign=middle;whiteSpace=wrap;rounded=0;" vertex="1" parent="1">
          <mxGeometry x="570" y="730" width="60" height="30" as="geometry" />
        </mxCell>
        <mxCell id="STHu1EgsjJPl13Fwe0tR-74" value=" Send massage &quot;Your&lt;br&gt; request&amp;nbsp;accepted&quot;" style="text;html=1;align=center;verticalAlign=middle;whiteSpace=wrap;rounded=0;" vertex="1" parent="1">
          <mxGeometry x="347.5" y="845" width="150" height="30" as="geometry" />
        </mxCell>
        <mxCell id="STHu1EgsjJPl13Fwe0tR-75" value="" style="ellipse;html=1;shape=endState;fillColor=#000000;strokeColor=#1F1F1F;" vertex="1" parent="1">
          <mxGeometry x="410" y="970" width="30" height="30" as="geometry" />
        </mxCell>
        <mxCell id="STHu1EgsjJPl13Fwe0tR-86" style="edgeStyle=none;rounded=0;orthogonalLoop=1;jettySize=auto;html=1;exitX=0.5;exitY=1;exitDx=0;exitDy=0;entryX=0.5;entryY=0;entryDx=0;entryDy=0;" edge="1" parent="1" source="STHu1EgsjJPl13Fwe0tR-78" target="STHu1EgsjJPl13Fwe0tR-84">
          <mxGeometry relative="1" as="geometry" />
        </mxCell>
        <mxCell id="STHu1EgsjJPl13Fwe0tR-78" value="" style="rounded=1;whiteSpace=wrap;html=1;" vertex="1" parent="1">
          <mxGeometry x="485" y="930" width="150" height="60" as="geometry" />
        </mxCell>
        <mxCell id="STHu1EgsjJPl13Fwe0tR-82" value="no" style="text;html=1;align=center;verticalAlign=middle;whiteSpace=wrap;rounded=0;" vertex="1" parent="1">
          <mxGeometry x="690" y="815" width="60" height="30" as="geometry" />
        </mxCell>
        <mxCell id="STHu1EgsjJPl13Fwe0tR-83" value=" Send massage &quot;Your&lt;br&gt; request denied&quot;" style="text;html=1;align=center;verticalAlign=middle;whiteSpace=wrap;rounded=0;" vertex="1" parent="1">
          <mxGeometry x="480" y="945" width="170" height="30" as="geometry" />
        </mxCell>
        <mxCell id="STHu1EgsjJPl13Fwe0tR-84" value="" style="ellipse;html=1;shape=endState;fillColor=#000000;strokeColor=#0F0F0F;" vertex="1" parent="1">
          <mxGeometry x="545" y="1030" width="30" height="30" as="geometry" />
        </mxCell>
      </root>
    </mxGraphModel>
  </diagram>
</mxfile>
